<svg version="1.1" xmlns="http://www.w3.org/2000/svg" xmlns:xlink="http://www.w3.org/1999/xlink" width="210.12842" height="205.98846" viewBox="0,0,210.12842,205.98846"><g transform="translate(-134.93579,-76.48775)"><g data-paper-data="{&quot;isPaintingLayer&quot;:true}" fill="#ffffff" fill-rule="nonzero" stroke="#d58000" stroke-width="10" stroke-linecap="butt" stroke-linejoin="miter" stroke-miterlimit="10" stroke-dasharray="" stroke-dashoffset="0" style="mix-blend-mode: normal"><path d="M264.61312,218.47773c4.75836,41.68453 -6.77696,55.18216 -23.62211,58.99848c-29.44416,6.67065 -22.08754,-20.32349 -46.06425,-39.38707c-23.97671,-19.06359 -55.74863,-0.09665 -54.97719,-26.21902c0.77144,-26.12237 13.57182,-46.10531 57.26034,-51.09243c43.68853,-4.98712 62.64484,16.01551 67.4032,57.70005z"></path><path d="M225.06325,109.8182c0,15.64647 -12.36286,28.33045 -27.61322,28.33045c-15.25036,0 -27.61322,-12.68398 -27.61322,-28.33045c0,-15.64647 12.36286,-28.33045 27.61322,-28.33045c15.25036,0 27.61322,12.68398 27.61322,28.33045z"></path><path d="M298.48194,125.41155c0,15.64647 -12.36286,28.33045 -27.61322,28.33045c-15.25036,0 -27.61322,-12.68398 -27.61322,-28.33045c0,-15.64647 12.36286,-28.33045 27.61322,-28.33045c15.25036,0 27.61322,12.68398 27.61322,28.33045z"></path><path d="M340.06421,191.03357c0,15.64647 -12.36286,28.33045 -27.61322,28.33045c-15.25036,0 -27.61322,-12.68398 -27.61322,-28.33045c0,-15.64647 12.36286,-28.33045 27.61322,-28.33045c15.25036,0 27.61322,12.68398 27.61322,28.33045z"></path></g></g></svg>